<?xml version="1.0" encoding="UTF-8" standalone="no"?>
<!DOCTYPE svg PUBLIC "-//W3C//DTD SVG 1.1//EN" "http://www.w3.org/Graphics/SVG/1.1/DTD/svg11.dtd">
<svg width="100%" height="100%" viewBox="0 0 3000 3000" version="1.1" xmlns="http://www.w3.org/2000/svg" xmlns:xlink="http://www.w3.org/1999/xlink" xml:space="preserve" xmlns:serif="http://www.serif.com/" style="fill-rule:evenodd;clip-rule:evenodd;stroke-linejoin:round;stroke-miterlimit:2;">
    <g transform="matrix(1,0,0,1,-52.8242,-139.215)">
        <path d="M2426.08,2368.63C2409.12,2356.51 2388.8,2350 2367.95,2350L2135,2350C2115.67,2350 2100,2334.33 2100,2315L2100,2235C2100,2225.72 2103.69,2216.82 2110.25,2210.25C2116.82,2203.69 2125.72,2200 2135,2200C2218.96,2200 2431.04,2200 2515,2200C2524.28,2200 2533.18,2196.31 2539.75,2189.75C2546.31,2183.18 2550,2174.28 2550,2165C2550,1970.96 2550,1029.04 2550,835C2550,825.717 2546.31,816.815 2539.75,810.251C2533.18,803.687 2524.28,800 2515,800C2431.04,800 2218.96,800 2135,800C2125.72,800 2116.82,796.313 2110.25,789.749C2103.69,783.185 2100,774.283 2100,765C2100,740.925 2100,709.075 2100,685C2100,665.67 2115.67,650 2135,650L2665,650C2684.33,650 2700,665.67 2700,685C2700,685 2700,2145.42 2700,2330.74C2700,2343.46 2702.43,2356.07 2707.15,2367.88C2726.23,2415.58 2778.66,2546.66 2804.79,2611.97C2806.77,2616.92 2805.25,2622.58 2801.06,2625.87C2796.87,2629.16 2791.01,2629.29 2786.67,2626.2C2705.54,2568.25 2499.1,2420.78 2426.08,2368.63ZM900,685C900,665.67 884.33,650 865,650L335,650C315.67,650 300,665.67 300,685C300,905.029 300,2094.97 300,2315C300,2334.33 315.67,2350 335,2350C441.176,2350 758.824,2350 865,2350C884.33,2350 900,2334.33 900,2315L900,2235C900,2225.72 896.313,2216.82 889.749,2210.25C883.185,2203.69 874.283,2200 865,2200C781.042,2200 568.958,2200 485,2200C475.717,2200 466.815,2196.31 460.251,2189.75C453.687,2183.18 450,2174.28 450,2165L450,835C450,825.717 453.687,816.815 460.251,810.251C466.815,803.687 475.717,800 485,800L865,800C874.283,800 883.185,796.313 889.749,789.749C896.313,783.185 900,774.283 900,765C900,740.925 900,709.075 900,685ZM2000,1965C2000,1974.28 2003.69,1983.18 2010.25,1989.75C2016.82,1996.31 2025.72,2000 2035,2000L2165,2000C2174.28,2000 2183.18,1996.31 2189.75,1989.75C2196.31,1983.18 2200,1974.28 2200,1965L2200,1835C2200,1825.72 2196.31,1816.82 2189.75,1810.25C2183.18,1803.69 2174.28,1800 2165,1800L2035,1800C2025.72,1800 2016.82,1803.69 2010.25,1810.25C2003.69,1816.82 2000,1825.72 2000,1835L2000,1965ZM800,1965C800,1974.28 803.687,1983.18 810.251,1989.75C816.815,1996.31 825.717,2000 835,2000L965,2000C974.283,2000 983.185,1996.31 989.749,1989.75C996.313,1983.18 1000,1974.28 1000,1965L1000,1835C1000,1825.72 996.313,1816.82 989.749,1810.25C983.185,1803.69 974.283,1800 965,1800L835,1800C825.717,1800 816.815,1803.69 810.251,1810.25C803.687,1816.82 800,1825.72 800,1835L800,1965ZM1400,1965C1400,1974.28 1403.69,1983.18 1410.25,1989.75C1416.82,1996.31 1425.72,2000 1435,2000L1565,2000C1574.28,2000 1583.18,1996.31 1589.75,1989.75C1596.31,1983.18 1600,1974.28 1600,1965L1600,1835C1600,1825.72 1596.31,1816.82 1589.75,1810.25C1583.18,1803.69 1574.28,1800 1565,1800L1435,1800C1425.72,1800 1416.82,1803.69 1410.25,1810.25C1403.69,1816.82 1400,1825.72 1400,1835L1400,1965Z" style="fill:url(#_Linear1);"/>
    </g>
    <defs>
        <linearGradient id="_Linear1" x1="0" y1="0" x2="1" y2="0" gradientUnits="userSpaceOnUse" gradientTransform="matrix(2505.65,1978.43,-1978.43,2505.65,300,650)"><stop offset="0" style="stop-color:rgb(109,18,151);stop-opacity:1"/><stop offset="0.48" style="stop-color:rgb(199,0,90);stop-opacity:1"/><stop offset="1" style="stop-color:rgb(129,38,190);stop-opacity:1"/></linearGradient>
    </defs>
</svg>
